<svg viewBox="0 0 24 24" xmlns="http://www.w3.org/2000/svg" fill-rule="evenodd" clip-rule="evenodd" stroke-linejoin="round" stroke-miterlimit="2"><path d="M4.5 12.125c-.7 0-1.292-.242-1.775-.725C2.242 10.917 2 10.325 2 9.625s.242-1.292.725-1.775c.483-.483 1.075-.725 1.775-.725s1.292.242 1.775.725C6.758 8.333 7 8.925 7 9.625s-.242 1.292-.725 1.775c-.483.483-1.075.725-1.775.725zm4.5-4c-.7 0-1.292-.242-1.775-.725-.483-.483-.725-1.075-.725-1.775s.242-1.292.725-1.775C7.708 3.367 8.3 3.125 9 3.125s1.292.242 1.775.725c.483.483.725 1.075.725 1.775s-.242 1.292-.725 1.775c-.483.483-1.075.725-1.775.725zm6 0c-.7 0-1.292-.242-1.775-.725-.483-.483-.725-1.075-.725-1.775s.242-1.292.725-1.775c.483-.483 1.075-.725 1.775-.725s1.292.242 1.775.725c.483.483.725 1.075.725 1.775s-.242 1.292-.725 1.775c-.483.483-1.075.725-1.775.725zm4.5 4c-.7 0-1.292-.242-1.775-.725-.483-.483-.725-1.075-.725-1.775s.242-1.292.725-1.775c.483-.483 1.075-.725 1.775-.725s1.292.242 1.775.725c.483.483.725 1.075.725 1.775s-.242 1.292-.725 1.775c-.483.483-1.075.725-1.775.725zm-12.85 10c-.75 0-1.379-.288-1.887-.863A2.973 2.973 0 014 19.225c0-.867.296-1.625.888-2.275.591-.65 1.179-1.292 1.762-1.925.483-.517.9-1.079 1.25-1.688a9.905 9.905 0 011.25-1.712 4.929 4.929 0 011.275-1.075A3.061 3.061 0 0112 10.125c.567 0 1.092.133 1.575.4.483.267.908.617 1.275 1.05.467.533.879 1.108 1.237 1.725.359.617.78 1.192 1.263 1.725a468.81 468.81 0 011.763 1.925c.591.65.887 1.408.887 2.275 0 .783-.254 1.462-.762 2.037-.509.575-1.138.863-1.888.863-.9 0-1.792-.075-2.675-.225a15.947 15.947 0 00-5.35 0c-.883.15-1.775.225-2.675.225z" fill-rule="nonzero"/></svg>