<svg viewBox="0 0 24 24" xmlns="http://www.w3.org/2000/svg" fill-rule="evenodd" clip-rule="evenodd" stroke-linejoin="round" stroke-miterlimit="2"><path d="M5 22v-9.6l-.275-.275a2.207 2.207 0 01-.425-.675 1.969 1.969 0 01.425-2.15L8 6h4l4-4 2.05 2.05a6.494 6.494 0 011.55 2.312c.333.859.5 1.738.5 2.638 0 .9-.167 1.775-.5 2.625-.333.85-.85 1.625-1.55 2.325L16 16v6H5zm2-2h7v-4.825l2.625-2.625a4.911 4.911 0 001.1-1.663c.25-.625.375-1.254.375-1.887s-.125-1.258-.375-1.875a4.938 4.938 0 00-1.1-1.65L16 4.825 12.825 8h-4l-.575.575 1.675 1.675c.483.483.85 1.033 1.1 1.65.25.617.375 1.242.375 1.875a5.05 5.05 0 01-.375 1.888 4.907 4.907 0 01-1.1 1.662L7 14.4V20z" fill-rule="nonzero"/></svg>