<?xml version="1.0" encoding="UTF-8" standalone="no"?>
<!DOCTYPE svg PUBLIC "-//W3C//DTD SVG 1.1//EN" "http://www.w3.org/Graphics/SVG/1.1/DTD/svg11.dtd">
<svg width="100%" height="100%" viewBox="0 0 24 24" version="1.1" xmlns="http://www.w3.org/2000/svg" xmlns:xlink="http://www.w3.org/1999/xlink" xml:space="preserve" xmlns:serif="http://www.serif.com/" style="fill-rule:evenodd;clip-rule:evenodd;stroke-linejoin:round;stroke-miterlimit:2;">
    <path d="M5,22L5,12.4L4.725,12.125C4.542,11.925 4.4,11.7 4.3,11.45C4.2,11.2 4.15,10.95 4.15,10.7C4.15,10.433 4.2,10.179 4.3,9.938C4.4,9.696 4.542,9.483 4.725,9.3L8,6L12,6L16,2L18.05,4.05C18.75,4.733 19.267,5.504 19.6,6.362C19.933,7.221 20.1,8.1 20.1,9C20.1,9.9 19.933,10.775 19.6,11.625C19.267,12.475 18.75,13.25 18.05,13.95L16,16L16,22L5,22ZM7,20L14,20L14,15.175L16.625,12.55C17.108,12.067 17.475,11.512 17.725,10.887C17.975,10.262 18.1,9.633 18.1,9C18.1,8.367 17.975,7.742 17.725,7.125C17.475,6.508 17.108,5.958 16.625,5.475L16,4.825L12.825,8L8.825,8L8.25,8.575L9.925,10.25C10.408,10.733 10.775,11.283 11.025,11.9C11.275,12.517 11.4,13.142 11.4,13.775C11.4,14.408 11.275,15.038 11.025,15.663C10.775,16.288 10.408,16.842 9.925,17.325L7,14.4L7,20Z" style="fill-rule:nonzero;"/>
</svg>
